<svg width="36" height="29" viewBox="0 0 36 29" fill="none" xmlns="http://www.w3.org/2000/svg">
<path d="M9.504 24.384C4.56 24.384 1.272 22.104 1.272 15.864H5.544C5.544 19.488 6.96 20.784 9.504 20.784C12.072 20.784 13.488 19.488 13.488 15.864V10.776H3.504V7.2H17.712V15.864C17.712 22.104 14.424 24.384 9.504 24.384Z" fill="white"/>
<path d="M33.808 19.944L35.632 21.024L33.496 24.432L30.952 22.8C29.248 23.832 27.04 24.384 24.448 24.384C18.016 24.384 14.008 20.904 14.008 15.6C14.008 10.296 18.016 6.816 24.448 6.816C30.88 6.816 34.912 10.296 34.912 15.6C34.912 17.232 34.528 18.696 33.808 19.944ZM24.448 20.784C25.456 20.784 26.368 20.64 27.16 20.376L23.464 18.024L25.384 14.88L30.232 17.784C30.52 17.136 30.664 16.416 30.664 15.6C30.664 12.432 28.336 10.392 24.448 10.392C20.584 10.392 18.232 12.432 18.232 15.6C18.232 18.768 20.584 20.784 24.448 20.784Z" fill="white"/>
</svg>
